Coordinates
version=1
nRows=24
nColumns=24
inDegrees=yes

Units are S.I. units (second, meters, Newtons, ...)
Angles are in degrees.

endheader
time	pelvis_tilt	pelvis_list	pelvis_rotation	pelvis_tx	pelvis_ty	pelvis_tz	hip_flexion_r	hip_adduction_r	hip_rotation_r	knee_angle_r	ankle_angle_r	subtalar_angle_r	mtp_angle_r	hip_flexion_l	hip_adduction_l	hip_rotation_l	knee_angle_l	ankle_angle_l	subtalar_angle_l	mtp_angle_l	lumbar_extension	lumbar_bending	lumbar_rotation
      4.69000000	    -19.22235142	     11.25861321	     -6.89738883	     -0.80096325	     -0.04094074	     -0.24667443	     17.71548693	     -8.44566023	      0.38238460	    -57.72010161	    -14.14293171	    -16.16550514	   -143.96484496	     42.50100937	     13.93225893	      5.77638117	    -26.10146123	     15.19328951	      5.13447180	    -69.95391023	     14.36315996	     -9.16797868	      8.64783639
      4.69500000	    -19.22918389	     11.20769505	     -6.94059030	     -0.79312158	     -0.03934263	     -0.24650466	     18.99781755	     -8.06107822	      0.69617513	    -59.28295943	    -12.83682278	    -17.67626313	   -141.87302695	     41.64558143	     13.84503492	      5.49508025	    -25.66295605	     15.92380068	      5.84716669	    -70.00864493	     14.38923541	     -9.03654787	      8.44898420
      4.70000000	    -19.15716313	     11.20649333	     -7.04766198	     -0.78520719	     -0.03753628	     -0.24626696	     20.21177353	     -7.70086592	      1.07957494	    -60.75528850	    -11.65623988	    -19.03569239	   -139.07144529	     40.60455253	     13.81140304	      5.39555157	    -25.02147876	     16.51133474	      6.29679513	    -70.17801459	     14.36391912	     -8.94575961	      8.34964951
      4.70500000	    -19.13392632	     11.15401811	     -7.13004889	     -0.77737303	     -0.03579219	     -0.24604119	     21.43915888	     -7.25076328	      1.52005550	    -62.06766457	    -10.49145907	    -20.23460944	   -137.52348272	     39.64417382	     13.71680462	      5.17642878	    -24.43603178	     17.09072523	      6.88306069	    -70.25993784	     14.37453604	     -8.80336891	      8.20768409
      4.71000000	    -19.06520607	     11.09279567	     -7.27088892	     -0.76951895	     -0.03393121	     -0.24571501	     22.60402607	     -6.74138915	      2.07520249	    -63.25834657	     -9.36028294	    -21.16948121	   -136.20015497	     38.57260951	     13.60181325	      5.05197676	    -23.73715669	     17.60507624	      7.35698164	    -70.35628247	     14.35501306	     -8.64423490	      8.13647192
      4.71500000	    -18.97087361	     11.03645921	     -7.41211755	     -0.76166425	     -0.03199915	     -0.24541791	     23.71202280	     -6.24038764	      2.62697160	    -64.26710240	     -8.34872087	    -22.09425115	   -135.98894852	     37.43787416	     13.52279635	      5.02991047	    -22.96104075	     17.96685575	      7.64754986	    -70.33736247	     14.30856597	     -8.49096908	      8.06425921
      4.72000000	    -18.92931408	     10.97523076	     -7.53155945	     -0.75385723	     -0.03019794	     -0.24506524	     24.87269040	     -5.71839263	      3.15993785	    -65.25128511	     -7.18690400	    -22.64471800	   -135.26158227	     36.37612630	     13.42606693	      4.94596472	    -22.20842787	     18.34901891	      8.01787341	    -70.45930923	     14.31661221	     -8.34004934	      8.01368041
      4.72500000	    -18.86079358	     10.83091527	     -7.61519763	     -0.74598177	     -0.02827568	     -0.24472693	     25.92174434	     -5.11564135	      3.68225815	    -66.05373953	     -5.97843981	    -22.87628153	   -135.23602256	     35.22381439	     13.29195116	      5.01291293	    -21.38350722	     18.63752648	      8.30870354	    -70.46568623	     14.28959174	     -8.12124572	      7.83712036
      4.73000000	    -18.79638423	     10.66821252	     -7.72148076	     -0.73816184	     -0.02639436	     -0.24435011	     26.96136919	     -4.49195849	      4.18919429	    -66.76295765	     -4.66882728	    -22.86781637	   -135.35028178	     34.07885131	     13.13434510	      5.08714719	    -20.55542582	     18.88967450	      8.50601163	    -70.47769038	     14.26410109	     -7.87868537	      7.71725379
      4.73500000	    -18.71889475	     10.53277503	     -7.81155944	     -0.73029966	     -0.02450039	     -0.24392848	     27.96017640	     -3.91767970	      4.68510144	    -67.37379616	     -3.21478733	    -22.53248562	   -135.71233765	     32.88084242	     13.01205642	      5.22951320	    -19.63927312	     19.03569444	      8.66184630	    -70.52590891	     14.23722606	     -7.68426750	      7.61120498
      4.74000000	    -18.63936626	     10.30084431	     -7.90360807	     -0.72246213	     -0.02254169	     -0.24356418	     28.87547981	     -3.25384046	      5.17978663	    -67.72613117	     -1.76896984	    -22.18380609	   -138.10321761	     31.64850159	     12.82049799	      5.51573737	    -18.69293838	     19.15235720	      8.63030364	    -70.74411997	     14.18843734	     -7.38543976	      7.48769012
      4.74500000	    -18.55584329	     10.08089665	     -7.97888454	     -0.71463298	     -0.02065092	     -0.24320267	     29.78127047	     -2.63723053	      5.60030666	    -68.09835490	     -0.10259250	    -21.32723297	   -138.76317207	     30.40508218	     12.64841666	      5.83234818	    -17.71601767	     19.15328187	      8.54641215	    -70.75939408	     14.13698502	     -7.10430797	      7.35800770
      4.75000000	    -18.47675781	      9.74489419	     -7.94256048	     -0.70679872	     -0.01872478	     -0.24300242	     30.58720266	     -1.99267028	      5.86523963	    -68.23697248	      1.55134881	    -20.45110633	   -140.78643717	     29.12295845	     12.43179706	      6.45380905	    -16.71604185	     19.08117335	      8.32289404	    -70.71749075	     14.06070863	     -6.73753825	      7.05992770
      4.75500000	    -18.41321076	      9.43809506	     -7.96644928	     -0.69901358	     -0.01687521	     -0.24270610	     31.40941132	     -1.35549352	      6.18343486	    -68.30975465	      3.24489938	    -19.33358332	   -142.34860623	     27.89322806	     12.18992219	      6.90694808	    -15.74122712	     18.98117304	      8.14150966	    -70.66296745	     14.01136297	     -6.38624689	      6.83887037
      4.76000000	    -18.36231918	      9.11332974	     -7.97286887	     -0.69124043	     -0.01508972	     -0.24242276	     32.21054219	     -0.73524012	      6.43221643	    -68.29074533	      4.95930372	    -18.07837574	   -143.48596828	     26.68460631	     11.92335528	      7.33481220	    -14.77207092	     18.84071904	      7.97558350	    -70.62457140	     13.97456093	     -6.02141597	      6.66380141
      4.76500000	    -18.32839411	      8.72999805	     -7.88435616	     -0.68354051	     -0.01338225	     -0.24225179	     32.96970405	     -0.11835150	      6.56878844	    -68.12555578	      6.57034252	    -16.88139498	   -144.91596413	     25.49608074	     11.63697745	      8.02712166	    -13.83621816	     18.68947427	      7.72100091	    -70.51469805	     13.92391893	     -5.62649426	      6.29056376
      4.77000000	    -18.28210972	      8.38279339	     -7.85170876	     -0.67584829	     -0.01171006	     -0.24201620	     33.70045997	      0.47027429	      6.74474765	    -67.87582792	      8.14634011	    -15.60327854	   -145.81533341	     24.33812586	     11.34446260	      8.46933709	    -12.93660702	     18.48487787	      7.53375165	    -70.45723030	     13.87550564	     -5.25235428	      6.00809018
      4.77500000	    -18.26511069	      7.98258474	     -7.69942899	     -0.66818480	     -0.01012440	     -0.24194874	     34.40054775	      1.02120584	      6.75879484	    -67.48229693	      9.57423606	    -14.46997118	   -146.71754033	     23.21776862	     11.04104861	      9.13902034	    -12.07531089	     18.25904941	      7.28123715	    -70.35680608	     13.83459671	     -4.85211689	      5.59038115
      4.78000000	    -18.25950186	      7.59700662	     -7.51668188	     -0.66054060	     -0.00863350	     -0.24188352	     35.07790212	      1.52831071	      6.73760131	    -66.97548650	     10.88776704	    -13.47193767	   -147.50426849	     22.15357937	     10.74323637	      9.75028524	    -11.28149671	     18.02630995	      7.09923622	    -70.21587326	     13.80503473	     -4.48101648	      5.15331949
      4.78500000	    -18.32317297	      7.24834497	     -7.28652081	     -0.65299557	     -0.00736461	     -0.24176996	     35.82072868	      1.98145418	      6.67575623	    -66.41346740	     12.12195827	    -12.58099450	   -147.83466909	     21.28351729	     10.45615762	     10.04451160	    -10.67972507	     17.95250285	      7.31875828	    -70.16948688	     13.84554339	     -4.16688236	      4.69943703
      4.79000000	    -18.26314437	      6.87278599	     -7.03752031	     -0.64532687	     -0.00594969	     -0.24181171	     36.35367135	      2.38865019	      6.56008170	    -65.66188069	     13.14414771	    -11.96678515	   -148.41699335	     20.16487637	     10.19088606	     10.88336127	     -9.88362621	     17.59060539	      6.89211179	    -70.00060570	     13.76003205	     -3.83083783	      4.18075668
      4.79500000	    -18.32533956	      6.59818881	     -6.73815663	     -0.63782341	     -0.00488608	     -0.24176524	     37.03951040	      2.69766302	      6.46300839	    -64.90602905	     14.15504493	    -11.42646144	   -148.66220406	     19.35409039	      9.99017182	     11.19690872	     -9.35497764	     17.45924350	      7.08324044	    -69.92448350	     13.80321431	     -3.61880390	      3.68792841
      4.80000000	    -18.29229482	      6.26687219	     -6.41742826	     -0.63020256	     -0.00370242	     -0.24181942	     37.53840460	      3.00079865	      6.28365257	    -63.95749213	     14.93243067	    -11.21833401	   -149.00120204	     18.36178136	      9.76333312	     11.89665969	     -8.70597340	     17.12665635	      6.79904214	    -69.71707099	     13.74817686	     -3.35697807	      3.10122234
      4.80500000	    -18.33277615	      6.04867483	     -6.05007807	     -0.62270441	     -0.00280287	     -0.24181048	     38.13502220	      3.17366759	      6.13373815	    -63.00621376	     15.72738297	    -11.03037117	   -149.14299153	     17.56899409	      9.63048794	     12.26720063	     -8.22695593	     16.94129976	      6.94519748	    -69.61553282	     13.77361364	     -3.23904047	      2.56864276
